<?xml version="1.0" standalone="no"?><!DOCTYPE svg PUBLIC "-//W3C//DTD SVG 1.1//EN" "http://www.w3.org/Graphics/SVG/1.1/DTD/svg11.dtd">
<svg class="icon" width="80px" height="80.00px" viewBox="0 0 1024 1024" version="1.1"
  xmlns="http://www.w3.org/2000/svg">
  <path d="M919.678538 638.280078M815.767933 958.796976 776.856715 958.796976l0 0.037862-466.923362 0.265036 0-0.302899-38.910195 0c-42.97579 0-77.82039-34.845623-77.82039-77.821413l0-41.342594-0.075725 0-0.229221-306.428018 0.303922 0 0-41.342594c0-41.796942 33.021068-75.635631 74.363661-77.478606l42.272779-0.019443 0-0.323365 0.094144 0 0-36.477796-0.191358 0-0.170892-81.20344c0-2.183735 0.285502-4.273327 0.64673-6.363941 2.886747-126.031415 105.768929-227.363288 232.511541-227.363288 128.567167 0 232.778624 118.546953 232.778624 247.124354 0 0.227174-0.019443 0.435928-0.019443 0.664126l-2.679016 0c0 0.095167 0.037862 0.170892 0.037862 0.265036l0.341784 1.520633c0 21.48943-17.403369 38.910195-38.910195 38.910195-21.487384 0-38.909172-17.421788-38.909172-38.910195l-0.342808-1.520633c0-4.957919 1.007957-9.651824 2.699482-14.001899-7.430226-78.903048-73.716932-155.015539-154.577564-155.015539-85.497233 0-154.806785 69.043493-155.337881 154.426115l-0.455371 0c0 0.095167 0.037862 0.170892 0.037862 0.265036l0.265036 117.966739 428.452165-0.246617c41.663912 0.169869 75.331709 33.152051 77.136821 74.419943l0.284479 392.855436C893.322264 924.141688 858.610694 958.796976 815.767933 958.796976zM815.711652 881.013425l-0.037862-62.015426-0.417509 61.71048-44.934398 0.304945L815.711652 881.013425zM815.425126 491.901243l-0.150426 0 0.169869 26.712385L815.425126 491.901243zM737.965963 492.793566l35.603893-0.873903-422.066735 0.24764c-0.89437 0.057305-1.768273 0.26606-2.677992 0.26606-0.89437 0-1.74883-0.208754-2.622734-0.26606l-22.608927 0 25.231661 0.626263c-62.432934 0-77.821413 11.741415-77.821413 77.82039l0.493234-78.409814-0.816598 0 0.303922 389.112182 473.307769-0.265036c55.648414-0.986467 70.809719-14.97097 71.380724-75.351152l-0.191358-243.845681C813.962821 503.984443 797.338189 492.793566 737.965963 492.793566zM271.003715 802.206568c0 66.078974 15.388479 79.035054 77.821413 79.035054l-77.308737-0.533143L271.003715 802.206568z" />
</svg>